# Blender v2.72 (sub 0) OBJ File: 'road_curve.blend'
# www.blender.org
mtllib road_curve.mtl
v -7.999999 0.200000 -3.724049
v -7.999999 0.200000 0.000000
v -7.999999 0.200000 -4.000000
v -7.999999 -0.200000 -4.400000
v -7.999999 0.248162 -4.000000
v -7.999999 0.248162 -3.724049
v -7.999999 0.200000 3.724049
v -7.999999 0.200000 4.000000
v -7.999999 -0.200000 4.400000
v -7.999999 0.248162 4.000000
v -7.999999 0.248162 3.724049
v -7.165802 0.200000 -3.806210
v -6.439277 0.200000 -0.153718
v -7.219637 0.200000 -4.076859
v -7.297674 -0.200000 -4.469172
v -7.219637 0.248162 -4.076859
v -7.165802 0.248162 -3.806210
v -5.712751 0.200000 3.498775
v -5.658916 0.200000 3.769423
v -5.580879 -0.200000 4.161737
v -5.658916 0.248162 3.769423
v -5.712751 0.248162 3.498775
v -6.363664 0.200000 -4.049536
v -4.938532 0.200000 -0.608964
v -6.469266 0.200000 -4.304482
v -6.622339 -0.200000 -4.674033
v -6.469266 0.248162 -4.304482
v -6.363664 0.248162 -4.049536
v -3.513401 0.200000 2.831609
v -3.407799 0.200000 3.086555
v -3.254725 -0.200000 3.456106
v -3.407799 0.248162 3.086555
v -3.513401 0.248162 2.831609
v -5.624409 0.200000 -4.444676
v -3.555438 0.200000 -1.348243
v -5.777719 0.200000 -4.674121
v -5.999947 -0.200000 -5.006709
v -5.777719 0.248162 -4.674121
v -5.624409 0.248162 -4.444676
v -1.486468 0.200000 1.748190
v -1.333158 0.200000 1.977636
v -1.110929 -0.200000 2.310223
v -1.333158 0.248162 1.977636
v -1.486468 0.248162 1.748190
v -4.976446 0.200000 -4.976445
v -2.343146 0.200000 -2.343145
v -5.171573 0.200000 -5.171572
v -5.454416 -0.200000 -5.454414
v -5.171573 0.248162 -5.171572
v -4.976446 0.248162 -4.976445
v 0.290153 0.199999 0.290155
v 0.485280 0.199999 0.485282
v 0.768123 -0.200001 0.768124
v 0.485280 0.248161 0.485282
v 0.290153 0.248161 0.290155
v -4.444677 0.200000 -5.624408
v -1.348244 0.200000 -3.555438
v -4.674122 0.200000 -5.777718
v -5.006710 -0.200000 -5.999946
v -4.674122 0.248162 -5.777718
v -4.444677 0.248162 -5.624408
v 1.748188 0.199999 -1.486467
v 1.977633 0.199999 -1.333156
v 2.310221 -0.200001 -1.110929
v 1.977633 0.248161 -1.333156
v 1.748188 0.248161 -1.486467
v -4.049537 0.200000 -6.363663
v -0.608965 0.199999 -4.938531
v -4.304482 0.200000 -6.469265
v -4.674034 -0.200000 -6.622338
v -4.304482 0.248162 -6.469265
v -4.049537 0.248162 -6.363663
v 2.831606 0.199999 -3.513400
v 3.086552 0.199999 -3.407798
v 3.456104 -0.200001 -3.254725
v 3.086552 0.248161 -3.407798
v 2.831606 0.248161 -3.513400
v -3.806211 0.200000 -7.165801
v -0.153720 0.199999 -6.439276
v -4.076859 0.200000 -7.219636
v -4.469173 -0.200000 -7.297673
v -4.076859 0.248162 -7.219636
v -3.806211 0.248162 -7.165801
v 3.498771 0.199999 -5.712750
v 3.769420 0.199999 -5.658915
v 4.161734 -0.200001 -5.580880
v 3.769420 0.248161 -5.658915
v 3.498771 0.248161 -5.712750
v -3.724049 0.200000 -7.999997
v -0.000002 0.199999 -7.999998
v -4.000000 0.200000 -7.999998
v -4.400000 -0.200000 -7.999998
v -4.000000 0.248162 -7.999998
v -3.724049 0.248162 -7.999997
v 3.724045 0.199998 -7.999998
v 3.999996 0.199998 -7.999998
v 4.399996 -0.200002 -7.999999
v 3.999996 0.248160 -7.999998
v 3.724045 0.248160 -7.999998
vt 0.147395 0.920569
vt 0.147395 0.908471
vt 0.006582 0.908471
vt 0.006582 0.988872
vt 0.147395 0.988872
vt 0.006582 0.854371
vt 0.006582 0.868977
vt 0.147395 0.868977
vt 0.006582 0.384063
vt 0.147395 0.384063
vt 0.147395 0.854371
vt 0.287493 0.920569
vt 0.287493 0.908471
vt 0.287493 0.988872
vt 0.287493 0.868977
vt 0.287493 0.854371
vt 0.287493 0.384063
vt 0.423109 0.920569
vt 0.423109 0.908471
vt 0.423109 0.988872
vt 0.423109 0.868977
vt 0.423109 0.854371
vt 0.423109 0.384063
vt 0.553308 0.920569
vt 0.553308 0.908471
vt 0.553308 0.988872
vt 0.553308 0.868977
vt 0.553308 0.854371
vt 0.553308 0.384063
vt 0.676114 0.920569
vt 0.676114 0.908471
vt 0.676114 0.988872
vt 0.676114 0.868977
vt 0.676114 0.854371
vt 0.676114 0.384063
vt 0.790783 0.920569
vt 0.790783 0.908471
vt 0.790783 0.988872
vt 0.790783 0.868977
vt 0.790783 0.854371
vt 0.790783 0.384063
vt 0.896023 0.920569
vt 0.896023 0.908471
vt 0.896023 0.988872
vt 0.896023 0.868977
vt 0.896023 0.854371
vt 0.896023 0.384063
vt 0.990457 0.920569
vt 0.990457 0.908471
vt 0.990457 0.988872
vt 0.990457 0.868977
vt 0.990457 0.384063
vt 0.990457 0.854371
vt 0.006582 0.920569
vn 0.098000 0.000000 0.995200
vn 0.069500 0.705400 0.705400
vn -0.098000 0.000000 -0.995200
vn -0.069500 0.705400 -0.705400
vn 0.000000 1.000000 -0.000000
vn 0.290300 0.000000 0.956900
vn 0.205800 0.705400 0.678300
vn -0.290300 0.000000 -0.956900
vn -0.205800 0.705400 -0.678300
vn 0.471400 0.000000 0.881900
vn 0.334100 0.705400 0.625100
vn -0.471400 0.000000 -0.881900
vn -0.334100 0.705400 -0.625100
vn 0.634400 0.000000 0.773000
vn 0.449700 0.705400 0.547900
vn -0.634400 0.000000 -0.773000
vn -0.449700 0.705400 -0.547900
vn 0.773000 0.000000 0.634400
vn 0.547900 0.705400 0.449700
vn -0.773000 0.000000 -0.634400
vn -0.547900 0.705400 -0.449700
vn 0.881900 0.000000 0.471400
vn 0.625100 0.705400 0.334100
vn -0.881900 0.000000 -0.471400
vn -0.625100 0.705400 -0.334100
vn 0.956900 0.000000 0.290300
vn 0.678300 0.705400 0.205800
vn -0.956900 0.000000 -0.290300
vn -0.678300 0.705400 -0.205800
vn 0.995200 0.000000 0.098000
vn 0.705400 0.705400 0.069500
vn -0.995200 0.000000 -0.098000
vn -0.705400 0.705400 -0.069500
usemtl Asphalt
s off
f 19/1/1 21/2/1 10/3/1
f 9/4/2 20/5/2 19/1/2
f 7/6/3 11/7/3 22/8/3
f 14/1/4 15/5/4 4/4/4
f 10/3/5 21/2/5 22/8/5
f 6/7/5 17/8/5 16/2/5
f 5/3/3 16/2/3 14/1/3
f 2/9/5 13/10/5 12/11/5
f 7/6/5 18/11/5 13/10/5
f 12/11/1 17/8/1 6/7/1
f 30/12/6 32/13/6 21/2/6
f 19/1/7 20/5/7 31/14/7
f 22/8/8 33/15/8 29/16/8
f 25/12/9 26/14/9 15/5/9
f 21/2/5 32/13/5 33/15/5
f 17/8/5 28/15/5 27/13/5
f 16/2/8 27/13/8 25/12/8
f 13/10/5 24/17/5 23/16/5
f 18/11/5 29/16/5 24/17/5
f 23/16/6 28/15/6 17/8/6
f 41/18/10 43/19/10 32/13/10
f 30/12/11 31/14/11 42/20/11
f 33/15/12 44/21/12 40/22/12
f 25/12/13 36/18/13 37/20/13
f 32/13/5 43/19/5 44/21/5
f 27/13/5 28/15/5 39/21/5
f 27/13/12 38/19/12 36/18/12
f 23/16/5 24/17/5 35/23/5
f 29/16/5 40/22/5 35/23/5
f 34/22/10 39/21/10 28/15/10
f 52/24/14 54/25/14 43/19/14
f 41/18/15 42/20/15 53/26/15
f 44/21/16 55/27/16 51/28/16
f 36/18/17 47/24/17 48/26/17
f 43/19/5 54/25/5 55/27/5
f 38/19/5 39/21/5 50/27/5
f 38/19/16 49/25/16 47/24/16
f 34/22/5 35/23/5 46/29/5
f 40/22/5 51/28/5 46/29/5
f 45/28/14 50/27/14 39/21/14
f 63/30/18 65/31/18 54/25/18
f 52/24/19 53/26/19 64/32/19
f 55/27/20 66/33/20 62/34/20
f 58/30/21 59/32/21 48/26/21
f 54/25/5 65/31/5 66/33/5
f 49/25/5 50/27/5 61/33/5
f 49/25/20 60/31/20 58/30/20
f 46/29/5 57/35/5 56/34/5
f 51/28/5 62/34/5 57/35/5
f 56/34/18 61/33/18 50/27/18
f 74/36/22 76/37/22 65/31/22
f 63/30/23 64/32/23 75/38/23
f 66/33/24 77/39/24 73/40/24
f 58/30/25 69/36/25 70/38/25
f 65/31/5 76/37/5 77/39/5
f 60/31/5 61/33/5 72/39/5
f 60/31/24 71/37/24 69/36/24
f 56/34/5 57/35/5 68/41/5
f 62/34/5 73/40/5 68/41/5
f 67/40/22 72/39/22 61/33/22
f 85/42/26 87/43/26 76/37/26
f 74/36/27 75/38/27 86/44/27
f 77/39/28 88/45/28 84/46/28
f 80/42/29 81/44/29 70/38/29
f 76/37/5 87/43/5 88/45/5
f 72/39/5 83/45/5 82/43/5
f 71/37/28 82/43/28 80/42/28
f 68/41/5 79/47/5 78/46/5
f 73/40/5 84/46/5 79/47/5
f 67/40/26 78/46/26 83/45/26
f 96/48/30 98/49/30 87/43/30
f 85/42/31 86/44/31 97/50/31
f 84/46/32 88/45/32 99/51/32
f 91/48/33 92/50/33 81/44/33
f 98/49/5 99/51/5 88/45/5
f 83/45/5 94/51/5 93/49/5
f 82/43/32 93/49/32 91/48/32
f 78/46/5 79/47/5 90/52/5
f 84/46/5 95/53/5 90/52/5
f 89/53/30 94/51/30 83/45/30
f 8/54/1 19/1/1 10/3/1
f 8/54/2 9/4/2 19/1/2
f 18/11/3 7/6/3 22/8/3
f 3/54/4 14/1/4 4/4/4
f 11/7/5 10/3/5 22/8/5
f 5/3/5 6/7/5 16/2/5
f 3/54/3 5/3/3 14/1/3
f 1/6/5 2/9/5 12/11/5
f 2/9/5 7/6/5 13/10/5
f 1/6/1 12/11/1 6/7/1
f 19/1/6 30/12/6 21/2/6
f 30/12/7 19/1/7 31/14/7
f 18/11/8 22/8/8 29/16/8
f 14/1/9 25/12/9 15/5/9
f 22/8/5 21/2/5 33/15/5
f 16/2/5 17/8/5 27/13/5
f 14/1/8 16/2/8 25/12/8
f 12/11/5 13/10/5 23/16/5
f 13/10/5 18/11/5 24/17/5
f 12/11/6 23/16/6 17/8/6
f 30/12/10 41/18/10 32/13/10
f 41/18/11 30/12/11 42/20/11
f 29/16/12 33/15/12 40/22/12
f 26/14/13 25/12/13 37/20/13
f 33/15/5 32/13/5 44/21/5
f 38/19/5 27/13/5 39/21/5
f 25/12/12 27/13/12 36/18/12
f 34/22/5 23/16/5 35/23/5
f 24/17/5 29/16/5 35/23/5
f 23/16/10 34/22/10 28/15/10
f 41/18/14 52/24/14 43/19/14
f 52/24/15 41/18/15 53/26/15
f 40/22/16 44/21/16 51/28/16
f 37/20/17 36/18/17 48/26/17
f 44/21/5 43/19/5 55/27/5
f 49/25/5 38/19/5 50/27/5
f 36/18/16 38/19/16 47/24/16
f 45/28/5 34/22/5 46/29/5
f 35/23/5 40/22/5 46/29/5
f 34/22/14 45/28/14 39/21/14
f 52/24/18 63/30/18 54/25/18
f 63/30/19 52/24/19 64/32/19
f 51/28/20 55/27/20 62/34/20
f 47/24/21 58/30/21 48/26/21
f 55/27/5 54/25/5 66/33/5
f 60/31/5 49/25/5 61/33/5
f 47/24/20 49/25/20 58/30/20
f 45/28/5 46/29/5 56/34/5
f 46/29/5 51/28/5 57/35/5
f 45/28/18 56/34/18 50/27/18
f 63/30/22 74/36/22 65/31/22
f 74/36/23 63/30/23 75/38/23
f 62/34/24 66/33/24 73/40/24
f 59/32/25 58/30/25 70/38/25
f 66/33/5 65/31/5 77/39/5
f 71/37/5 60/31/5 72/39/5
f 58/30/24 60/31/24 69/36/24
f 67/40/5 56/34/5 68/41/5
f 57/35/5 62/34/5 68/41/5
f 56/34/22 67/40/22 61/33/22
f 74/36/26 85/42/26 76/37/26
f 85/42/27 74/36/27 86/44/27
f 73/40/28 77/39/28 84/46/28
f 69/36/29 80/42/29 70/38/29
f 77/39/5 76/37/5 88/45/5
f 71/37/5 72/39/5 82/43/5
f 69/36/28 71/37/28 80/42/28
f 67/40/5 68/41/5 78/46/5
f 68/41/5 73/40/5 79/47/5
f 72/39/26 67/40/26 83/45/26
f 85/42/30 96/48/30 87/43/30
f 96/48/31 85/42/31 97/50/31
f 95/53/32 84/46/32 99/51/32
f 80/42/33 91/48/33 81/44/33
f 87/43/5 98/49/5 88/45/5
f 82/43/5 83/45/5 93/49/5
f 80/42/32 82/43/32 91/48/32
f 89/53/5 78/46/5 90/52/5
f 79/47/5 84/46/5 90/52/5
f 78/46/30 89/53/30 83/45/30
